<svg id="Layer_1" enable-background="new 0 0 512.536 512.536" height="512" viewBox="0 0 512.536 512.536" width="512" xmlns="http://www.w3.org/2000/svg"><g><g><g><path d="m165.097 195.678s65.801-16.101 49.395-111.45c0 0 79.074-131.922 250.507-49.379 0 0-111.547 22.584-83.613 134.636 0 0-75.057-15.934-93.665 47.979 0 0-38.113-25.551-74.194 12.874 0 0-30.595 4.671-48.43-34.66z" fill="#5bc992"/></g><g><path d="m231.81 252.968c39.452-34.955 75.062-6.017 75.062-6.017 24.39-61.938 97.67-39.189 97.67-39.189-17.543-114.142 95.605-126.403 95.605-126.403-163.143-97.914-253.979 26.202-253.979 26.202 7.594 96.452-59.406 106.452-59.406 106.452s10.341 23.974 45.048 38.955z" fill="#6fd7a3"/></g><path d="m103.977 38.839c52.471-15.837 91.425 31.06 79.679 94.835-11.6 62.984 13.166 98.789 48.154 119.295 33.934 19.889 90.305 59.992 94.452 134.045 7 125-142.669 149.402-184.333 77.333-37-64 24.351-122.71 24.351-122.71l15.316 12.71s-52.658 55.811-6.524 95.816c40.191 34.851 116.191 4.851 91.764-61.969-22.075-60.387-109.941-47.386-151.489-104.408-39.692-54.474-5.998-105.254 9.637-135.436 26.13-50.445 10.885-91.762-22.189-78.451z" fill="#c9f6b0"/><g><path d="m326.261 387.013c-4.147-74.053-60.517-114.156-94.452-134.045-34.987-20.506-59.754-56.311-48.154-119.295 11.746-63.775-27.208-110.671-79.679-94.834l-.016.415c30.287 11.261 48.161 48.455 39.695 94.42-11.6 62.984 13.166 98.789 48.154 119.295 33.934 19.889 90.305 59.992 94.452 134.045 3.856 68.857-39.829 107.184-86.812 115.679 58.181 10.896 131.769-27.173 126.812-115.68z" fill="#bbf49b"/></g><path d="m91.261 35.741 58.667-28.228s-10 51.5-50.662 72.672l-18.005-5.172z" fill="#6fd7a3"/><path d="m113.464 7.513-14.513 47.918.316 24.753c.128 10.059-5.486 19.324-14.494 23.919l-52.121 26.589c-12.257 6.253-25.205-7.154-18.391-19.052 8.071-14.092 17.343-30.738 26.464-48.11 7.528-14.338 19.124-26.17 33.325-34.076z" fill="#c9f6b0"/><path d="m184.202 314.065c4.482-3.795 11.226.245 9.995 5.988l-6.112 28.513-7 32.655c-1.117 5.21-7.877 6.636-11.003 2.32l-9.913-13.687c-1.004-1.386-2.539-2.291-4.237-2.499l-16.317-1.997c-5.329-.652-7.327-7.338-3.229-10.807l25.427-21.528z" fill="#6fd7a3"/></g><path d="m504.006 74.928c-18.929-11.361-37.71-20.249-56.217-26.628 10.747-4.427 18.591-6.078 18.698-6.101 6.897-1.396 8.106-11.055 1.766-14.108-40.184-19.348-78.836-28.71-114.9-27.848-52.027-.399-107.028 30.262-134.851 65.879l-.588-2.925c-2.249-9.652-16.36-6.827-14.706 2.956 7.098 33.576 12.105 78.547-14.632 105.505-.759-11.307.044-23.531 2.456-36.628 7.796-40.846-4.302-85.056-41.707-101.686 5.702-13.187 7.778-23.442 7.965-24.403 1.058-5.448-4.776-10.997-10.614-8.188l-27.308 13.14 1.274-4.208c1.915-6.324-5.052-11.942-10.826-8.727l-39.415 21.944c-15.545 8.654-28.103 21.498-36.317 37.143-7.922 15.09-16.781 31.195-26.332 47.869-10.297 17.979 10.123 38.736 28.307 29.46l52.121-26.589c10.223-5.214 16.957-14.934 18.326-26.04 4.636-2.72 8.873-5.79 12.74-9.098 8.881 3.28 10.831 16.18 11.15 18.963 2.528 22.053-7.633 41.499-18.392 62.087-11.062 21.171-21.342 43.297-22.647 67.531-1.022 18.983 3.802 37.987 13.952 54.957 5.274 8.82 17.652.291 12.873-7.699-8.611-14.397-12.707-30.46-11.846-46.451 1.958-48.171 46.214-82.169 40.964-132.133-1.658-14.457-7.803-23.438-15.069-28.315 4.924-5.792 9.02-11.875 12.403-17.81 26.949 10.925 40.981 45.712 33.647 85.537-9.37 50.875 5.515 100.04 51.808 127.166 34.665 20.329 59.201 43.427 73.979 69.799-3.878 2.333-8.92 5.243-12.576 6.905-3.771 1.714-5.438 6.161-3.724 9.931 1.622 3.568 6.394 5.332 9.932 3.724 3.909-1.777 8.909-4.614 12.965-7.027 5.869 14.007 9.242 28.893 10.113 44.708l-12.244.555c-4.138.188-7.34 3.694-7.153 7.832.178 4.144 3.729 7.351 7.832 7.153 0 0 11.608-.526 11.608-.526-.875 16.584-4.902 31.5-12.019 44.589l-7.301-4.497c-3.526-2.173-8.147-1.075-10.319 2.453-2.172 3.526-1.074 8.146 2.453 10.319l6.947 4.279c-9.35 12.031-21.561 21.537-35.866 27.994l-3.998-8.514c-1.761-3.749-6.229-5.361-9.977-3.601-3.75 1.761-5.361 6.228-3.601 9.977l3.44 7.325c-84.87 23.371-137.119-53.113-97.485-118.542 2.779-.159 4.685 1.129 5.76 3.745-14.378 30.3-9.741 57.784 13.303 77.766 88.467 66.847 175.738-83.627 30.131-128.404 0 0 1.243-5.8 1.243-5.8 2.853-12.58-12.43-21.733-22.175-13.284 0 0-8.674 7.344-8.674 7.344-9.228-4.068-16.736-8.029-23.375-12.32-8.49-5.123-16.302 6.96-8.142 12.598 5.638 3.644 11.79 7.046 18.875 10.426l-26.501 22.438c-7.825 6.624-5.522 19.421 3.801 23.11-26.778 52.119-7.281 117.693 51.501 135.404 108.566 31.302 180.242-85.205 131.884-178.406-14.747-32.533-44.136-58.025-73.7-76.703 30.499-20.12 55.979-.367 57.116.539 3.875 3.14 9.88 1.578 11.708-3.072 13.987-35.521 54.106-45.363 88.467-34.774 5.197 1.602 10.484-2.927 9.633-8.329-4.776-31.108.24-56.992 14.908-76.932 2.455-3.337 1.739-8.031-1.597-10.486-3.336-2.454-8.031-1.74-10.486 1.597-12.333 16.766-18.85 36.848-19.515 59.925-26.58-30.488-54.798-54.146-114.367-69.008-4.047-.903-8.052 1.647-8.952 5.69-.901 4.043 1.646 8.051 5.689 8.952 57.496 14.299 86.324 38.699 111.296 70.736-28.67-3.449-59.373 3.34-77.805 27.116-3.022-13.219-8.846-31.898-20.094-55.41-1.788-3.737-6.266-5.317-10.002-3.529s-5.316 6.266-3.529 10.002c12.543 26.218 17.888 45.933 20.172 57.982-22.684-9.431-47.398-4.482-66.508 10.515-12.32-7.957-22.063-17.517-29.075-28.549 42.089-14.822 53.241-65.443 51.518-104.962 56.59-69.528 151.137-70.803 225.663-31.987-8.978 2.644-20.03 6.799-31.162 13.24-8.421 5.223-1.229 17.683 7.512 12.983 22.443-12.985 45.123-15.63 45.339-15.654 6.996-.758 9.085-10.266 3.051-13.887zm-366.213-53.253c-5.012 13.189-14.549 31.946-31.199 44.902l-.129-10.082 7.001-23.115zm-56.429 75.748-52.121 26.589c-5.481 2.796-11.622-3.147-8.474-8.644 9.641-16.833 18.589-33.1 26.596-48.352 6.854-13.055 17.343-23.778 30.332-31.009l23.214-12.923-9.139 30.172c-.223.735-.331 1.501-.321 2.27l.316 24.753c.093 7.255-3.894 13.824-10.403 17.144zm178.427 293.346c18.203 49.794-39.84 88.385-79.807 53.727-16.234-14.077-20.405-31.931-12.49-53.175 7.825 5.261 18.989.499 20.924-8.528l8.688-40.526c28.697 10.998 52.925 21.804 62.685 48.502zm-73.754-68.43-11.652 54.356c-9.367-12.934-15.327-16.514-30.805-18.41zm122.944-271.472c-26.804 11.685-45.955 27.789-57.161 39.033l-.317-2.967c-.44-4.119-4.135-7.096-8.255-6.66-4.119.44-7.1 4.137-6.66 8.255 4.355 37.008 4.114 100.23-41.414 113.191-1.618-4.017-2.944-8.219-3.991-12.591 31.475-23.131 35.823-67.179 30.959-102.911 48.007-68.876 135.505-89.911 221.787-52.552-5.299 2.105-11.312 4.839-17.577 8.334-39.072-9.45-80.337-7.278-117.371 8.868z"/></g></svg>